<svg height="512pt" viewBox="0 -29 512.00021 512" width="512pt" xmlns="http://www.w3.org/2000/svg"><path d="m504.976562 394.40625-214.53125-371.578125c-8.378906-14.507813-20.933593-22.828125-34.445312-22.828125-13.515625 0-26.070312 8.320312-34.445312 22.828125l-214.53125 371.578125c-8.375 14.503906-9.304688 29.539062-2.546876 41.242188 6.753907 11.703124 20.238282 18.414062 36.988282 18.414062h429.066406c16.753906 0 30.234375-6.710938 36.992188-18.414062 6.757812-11.707032 5.828124-26.738282-2.546876-41.242188zm-23.433593 26.238281c-.984375 1.699219-4.769531 3.414063-11.011719 3.414063h-429.0625c-6.246094 0-10.027344-1.710938-11.007812-3.414063-.984376-1.699219-.574219-5.832031 2.546874-11.238281l214.53125-371.578125c3.121094-5.40625 6.496094-7.824219 8.457032-7.824219 1.964844 0 5.34375 2.417969 8.464844 7.824219l214.53125 371.578125c3.121093 5.40625 3.53125 9.539062 2.550781 11.238281zm0 0"/><path d="m256 327.652344c-21.5625 0-39.105469 17.542968-39.105469 39.105468 0 21.558594 17.542969 39.101563 39.105469 39.101563s39.105469-17.542969 39.105469-39.101563c0-21.5625-17.542969-39.105468-39.105469-39.105468zm0 48.203125c-5.019531 0-9.101562-4.082031-9.101562-9.101563 0-5.015625 4.082031-9.097656 9.101562-9.097656s9.101562 4.082031 9.101562 9.097656c0 5.019532-4.082031 9.101563-9.101562 9.101563zm0 0"/><path d="m256 99.484375c-21.5625 0-39.105469 17.542969-39.105469 39.105469v131.757812c0 21.5625 17.542969 39.101563 39.105469 39.101563s39.105469-17.539063 39.105469-39.101563v-131.757812c0-21.5625-17.542969-39.105469-39.105469-39.105469zm9.101562 170.863281c0 5.019532-4.082031 9.101563-9.101562 9.101563s-9.101562-4.082031-9.101562-9.101563v-131.757812c0-5.019532 4.082031-9.101563 9.101562-9.101563s9.101562 4.082031 9.101562 9.101563zm0 0"/></svg>