<svg id="Capa_1" enable-background="new 0 0 512 512" height="512" viewBox="0 0 512 512" width="512" xmlns="http://www.w3.org/2000/svg"><g><path d="m512 256c0 68.38-26.63 132.67-74.98 181.02s-112.64 74.98-181.02 74.98-132.67-26.63-181.02-74.98c-48.35-48.35-74.98-112.64-74.98-181.02s26.63-132.67 74.98-181.02 112.64-74.98 181.02-74.98 132.67 26.63 181.02 74.98 74.98 112.64 74.98 181.02z" fill="#ffea01"/><path d="m512 256c0 68.38-26.63 132.67-74.98 181.02s-112.64 74.98-181.02 74.98v-512c68.38 0 132.67 26.63 181.02 74.98s74.98 112.64 74.98 181.02z" fill="#ffc303"/><circle cx="256" cy="256" fill="#f0f8ff" r="193.53"/><path d="m449.53 256c0 106.89-86.64 193.53-193.53 193.53v-387.06c106.89 0 193.53 86.64 193.53 193.53z" fill="#d7e5f4"/><path d="m256 47.47c-114.99 0-208.53 93.54-208.53 208.53s93.54 208.53 208.53 208.53 208.53-93.54 208.53-208.53-93.54-208.53-208.53-208.53zm161.55 284.48-24-13.86-15 25.98 23.96 13.84c-12.12 17.36-27.24 32.48-44.6 44.6l-13.84-23.96-25.98 15 13.86 24c-18.77 8.86-39.32 14.54-60.95 16.35v-27.73h-30v27.73c-21.63-1.81-42.18-7.49-60.95-16.35l13.86-24-25.98-15-13.84 23.96c-17.36-12.12-32.48-27.24-44.6-44.6l23.96-13.84-15-25.98-24 13.86c-8.86-18.77-14.54-39.32-16.35-60.95h27.73v-30h-27.73c1.81-21.63 7.49-42.18 16.35-60.95l24 13.86 15-25.98-23.96-13.84c12.12-17.36 27.24-32.48 44.6-44.6l13.84 23.96 25.98-15-13.86-24c18.77-8.86 39.32-14.54 60.95-16.35v27.73h30v-27.73c21.63 1.81 42.18 7.49 60.95 16.35l-13.86 24 25.98 15 13.84-23.96c17.36 12.12 32.48 27.24 44.6 44.6l-23.96 13.84 15 25.98 24-13.86c8.86 18.77 14.54 39.32 16.35 60.95h-27.73v30h27.73c-1.81 21.63-7.49 42.18-16.35 60.95z" fill="#626d7f"/><path d="m329.44 282.16-15.32 25.8-58.12-34.51-15-8.91v-116.46h30v99.38z" fill="#4c5c72"/><path d="m314.12 307.96-58.12-34.51v-125.37h15v99.38l58.44 34.7z" fill="#343941"/><path d="m464.53 256c0 114.99-93.54 208.53-208.53 208.53v-58.36h15v27.73c21.63-1.81 42.18-7.49 60.95-16.35l-13.86-24 25.98-15 13.84 23.96c17.36-12.12 32.48-27.24 44.6-44.6l-23.96-13.84 15-25.98 24 13.86c8.86-18.77 14.54-39.32 16.35-60.95h-27.73v-30h27.73c-1.81-21.63-7.49-42.18-16.35-60.95l-24 13.86-15-25.98 23.96-13.84c-12.12-17.36-27.24-32.48-44.6-44.6l-13.84 23.96-25.98-15 13.86-24c-18.77-8.86-39.32-14.54-60.95-16.35v27.73h-15v-58.36c114.99 0 208.53 93.54 208.53 208.53z" fill="#464f53"/></g></svg>